<svg width="102" height="16" viewBox="0 0 102 16" fill="none" xmlns="http://www.w3.org/2000/svg">
<path d="M23.7775 5.9071H15.1646L14.857 6.22009V15.9609H17.2255V12.2836L17.4408 12.0098H23.7774C25.3768 12.0098 26.1151 11.4622 26.1151 10.0539V7.82406C26.1152 6.45477 25.3769 5.9071 23.7775 5.9071ZM23.7775 9.50608C23.7775 10.1711 23.4391 10.2884 22.6701 10.2884H17.4716L17.2255 10.0146V7.94132L17.4408 7.66749H22.67C23.4083 7.66749 23.7773 7.78485 23.7773 8.44984L23.7775 9.50608ZM30.4831 7.74569L32.544 11.5794L32.421 11.9315H27.8685L26.6996 13.7702H33.4668L33.959 14.1222L35.0048 15.9608H37.7424L31.7443 5.78973M57.6441 14.0048V11.2665L57.8902 10.9926H62.4735V9.27135H55.2141V15.9608H65.9186V14.2396H57.921M55.2141 5.9071H66.0108V7.78485H55.2141V5.9071ZM43.187 7.70659H51.892C51.769 6.2983 51.0615 5.9071 49.3389 5.9071H43.0947C41.1261 5.9071 40.5109 6.37656 40.5109 8.29337V13.6136C40.5109 15.4914 41.1261 16 43.0947 16H49.3389C51.0923 16 51.769 15.5696 51.8305 14.1222H43.187L42.9409 13.8092V7.94132M9.01263 9.81907H2.70686L2.52229 9.54529V7.82401L2.70686 7.62843H11.2274L11.3504 7.27633C11.0735 6.3374 10.3045 5.86805 8.92035 5.86805H2.98367C1.01506 5.86805 0.399849 6.33746 0.399849 8.25426V9.38877C0.399849 11.2666 1.01506 11.7751 2.98367 11.7751H9.28949L9.47402 12.0098V13.8093L9.32024 14.0831H0.215278C0.215278 14.0831 0 14.2396 0 14.2787C0.153781 15.6088 0.861275 15.9608 2.55303 15.9608H9.01267C10.9813 15.9608 11.6273 15.4914 11.6273 13.5746V12.2053C11.6272 10.3276 10.9813 9.81907 9.01263 9.81907ZM72.8088 5.868H69.2406L69.0561 6.3374L72.9933 10.0147C73.7316 9.46698 74.5621 8.91935 75.4234 8.37163M76.0078 12.7531L79.4837 15.9608H83.0519L83.2057 15.5305L78.038 10.7188C77.3613 11.3838 76.6538 12.0489 76.0078 12.7531Z" fill="#F7F7F7"/>
<path d="M72.2859 15.9608H69.0561L68.7792 15.4131C70.9632 12.7139 80.7448 1.21271 102 0C102 0 84.19 0.782349 72.2859 15.9608Z" fill="#E4E4E4"/>
</svg>
